<mxfile host="app.diagrams.net" modified="2021-11-17T06:45:12.800Z" agent="5.0 (Windows NT 10.0; Win64; x64) AppleWebKit/537.36 (KHTML, like Gecko) Chrome/95.0.4638.54 Safari/537.36" etag="pcR-88e8nmeJ6TZ2Ij-X" version="15.7.4" type="github">
  <diagram id="UWDzkhf6b-I-Ufx4RIvm" name="Page-1">
    <mxGraphModel dx="1422" dy="762" grid="0" gridSize="10" guides="1" tooltips="1" connect="1" arrows="1" fold="1" page="1" pageScale="1" pageWidth="1169" pageHeight="827" math="0" shadow="0">
      <root>
        <mxCell id="0" />
        <mxCell id="1" parent="0" />
        <mxCell id="ktw5Y0B_OCED_jIGJP1N-3" value="绪论" style="rounded=0;whiteSpace=wrap;html=1;fillColor=#d5e8d4;strokeColor=#82b366;" parent="1" vertex="1">
          <mxGeometry x="209" y="454" width="60" height="40" as="geometry" />
        </mxCell>
        <mxCell id="ktw5Y0B_OCED_jIGJP1N-9" value="" style="html=1;shadow=0;dashed=0;align=center;verticalAlign=middle;shape=mxgraph.arrows2.arrow;dy=0.7;dx=27;notch=0;fillColor=#d5e8d4;strokeColor=#82b366;" parent="1" vertex="1">
          <mxGeometry x="269" y="464" width="37" height="20" as="geometry" />
        </mxCell>
        <mxCell id="ktw5Y0B_OCED_jIGJP1N-10" value="印度、西班牙市场分析" style="rounded=0;whiteSpace=wrap;html=1;fillColor=#d5e8d4;strokeColor=#82b366;" parent="1" vertex="1">
          <mxGeometry x="403.5" y="454" width="70" height="40" as="geometry" />
        </mxCell>
        <mxCell id="ktw5Y0B_OCED_jIGJP1N-11" value="" style="html=1;shadow=0;dashed=0;align=center;verticalAlign=middle;shape=mxgraph.arrows2.arrow;dy=0.7;dx=27;notch=0;fillColor=#d5e8d4;strokeColor=#82b366;" parent="1" vertex="1">
          <mxGeometry x="363.5" y="464" width="40" height="20" as="geometry" />
        </mxCell>
        <mxCell id="ktw5Y0B_OCED_jIGJP1N-12" value="理论概述" style="rounded=0;whiteSpace=wrap;html=1;fillColor=#d5e8d4;strokeColor=#82b366;" parent="1" vertex="1">
          <mxGeometry x="306" y="454" width="60" height="40" as="geometry" />
        </mxCell>
        <mxCell id="ktw5Y0B_OCED_jIGJP1N-13" value="" style="html=1;shadow=0;dashed=0;align=center;verticalAlign=middle;shape=mxgraph.arrows2.arrow;dy=0.7;dx=27;notch=0;fillColor=#d5e8d4;strokeColor=#82b366;" parent="1" vertex="1">
          <mxGeometry x="473.5" y="464" width="172.5" height="20" as="geometry" />
        </mxCell>
        <mxCell id="ktw5Y0B_OCED_jIGJP1N-14" value="印度、西班牙市场营销渠道分析" style="rounded=0;whiteSpace=wrap;html=1;fillColor=#d5e8d4;strokeColor=#82b366;" parent="1" vertex="1">
          <mxGeometry x="646" y="454" width="100" height="40" as="geometry" />
        </mxCell>
        <mxCell id="ktw5Y0B_OCED_jIGJP1N-15" value="" style="html=1;shadow=0;dashed=0;align=center;verticalAlign=middle;shape=mxgraph.arrows2.arrow;dy=0.7;dx=27;notch=0;fillColor=#d5e8d4;strokeColor=#82b366;" parent="1" vertex="1">
          <mxGeometry x="746" y="464" width="50" height="20" as="geometry" />
        </mxCell>
        <mxCell id="ktw5Y0B_OCED_jIGJP1N-16" value="市场营销渠道等分析比较" style="rounded=0;whiteSpace=wrap;html=1;fillColor=#d5e8d4;strokeColor=#82b366;" parent="1" vertex="1">
          <mxGeometry x="796" y="454" width="100" height="40" as="geometry" />
        </mxCell>
        <mxCell id="ktw5Y0B_OCED_jIGJP1N-17" value="" style="html=1;shadow=0;dashed=0;align=center;verticalAlign=middle;shape=mxgraph.arrows2.arrow;dy=0.7;dx=27;notch=0;fillColor=#d5e8d4;strokeColor=#82b366;" parent="1" vertex="1">
          <mxGeometry x="896" y="464" width="47" height="20" as="geometry" />
        </mxCell>
        <mxCell id="ktw5Y0B_OCED_jIGJP1N-18" value="结论、建议和启示" style="rounded=0;whiteSpace=wrap;html=1;fillColor=#d5e8d4;strokeColor=#82b366;" parent="1" vertex="1">
          <mxGeometry x="943" y="454" width="100" height="40" as="geometry" />
        </mxCell>
        <mxCell id="ktw5Y0B_OCED_jIGJP1N-24" value="踊跃网络用户人数" style="rounded=1;whiteSpace=wrap;html=1;fillColor=#dae8fc;strokeColor=#6c8ebf;" parent="1" vertex="1">
          <mxGeometry x="316" y="534" width="80" height="40" as="geometry" />
        </mxCell>
        <mxCell id="ktw5Y0B_OCED_jIGJP1N-30" value="人均GDP" style="rounded=1;whiteSpace=wrap;html=1;fillColor=#dae8fc;strokeColor=#6c8ebf;" parent="1" vertex="1">
          <mxGeometry x="316" y="364" width="80" height="40" as="geometry" />
        </mxCell>
        <mxCell id="ktw5Y0B_OCED_jIGJP1N-31" value="智能手机市场增速" style="rounded=1;whiteSpace=wrap;html=1;fillColor=#dae8fc;strokeColor=#6c8ebf;" parent="1" vertex="1">
          <mxGeometry x="476" y="364" width="80" height="40" as="geometry" />
        </mxCell>
        <mxCell id="ktw5Y0B_OCED_jIGJP1N-32" value="电子商务时尚的发展" style="rounded=1;whiteSpace=wrap;html=1;fillColor=#dae8fc;strokeColor=#6c8ebf;" parent="1" vertex="1">
          <mxGeometry x="473.5" y="534" width="80" height="40" as="geometry" />
        </mxCell>
        <mxCell id="ktw5Y0B_OCED_jIGJP1N-33" value="" style="html=1;shadow=0;dashed=0;align=center;verticalAlign=middle;shape=mxgraph.arrows2.jumpInArrow;dy=6;dx=20;arrowHead=29.33;fillColor=#ffe6cc;strokeColor=#d79b00;" parent="1" vertex="1">
          <mxGeometry x="436" y="374" width="40" height="80" as="geometry" />
        </mxCell>
        <mxCell id="ktw5Y0B_OCED_jIGJP1N-38" value="" style="html=1;shadow=0;dashed=0;align=center;verticalAlign=middle;shape=mxgraph.arrows2.jumpInArrow;dy=6;dx=20;arrowHead=29.33;fillColor=#ffe6cc;strokeColor=#d79b00;direction=south;" parent="1" vertex="1">
          <mxGeometry x="436" y="494" width="80" height="40" as="geometry" />
        </mxCell>
        <mxCell id="ktw5Y0B_OCED_jIGJP1N-39" value="" style="html=1;shadow=0;dashed=0;align=center;verticalAlign=middle;shape=mxgraph.arrows2.jumpInArrow;dy=6;dx=20;arrowHead=29.33;fillColor=#ffe6cc;strokeColor=#d79b00;direction=west;" parent="1" vertex="1">
          <mxGeometry x="396" y="494" width="40" height="80" as="geometry" />
        </mxCell>
        <mxCell id="ktw5Y0B_OCED_jIGJP1N-41" value="" style="html=1;shadow=0;dashed=0;align=center;verticalAlign=middle;shape=mxgraph.arrows2.jumpInArrow;dy=6;dx=20;arrowHead=29.33;fillColor=#ffe6cc;strokeColor=#d79b00;direction=north;" parent="1" vertex="1">
          <mxGeometry x="356" y="404" width="80" height="50" as="geometry" />
        </mxCell>
        <mxCell id="ktw5Y0B_OCED_jIGJP1N-42" value="" style="html=1;shadow=0;dashed=0;align=center;verticalAlign=middle;shape=mxgraph.arrows2.jumpInArrow;dy=6;dx=20;arrowHead=29.33;fillColor=#ffe6cc;strokeColor=#d79b00;" parent="1" vertex="1">
          <mxGeometry x="706" y="374" width="40" height="80" as="geometry" />
        </mxCell>
        <mxCell id="ktw5Y0B_OCED_jIGJP1N-43" value="" style="html=1;shadow=0;dashed=0;align=center;verticalAlign=middle;shape=mxgraph.arrows2.jumpInArrow;dy=6;dx=20;arrowHead=29.33;fillColor=#ffe6cc;strokeColor=#d79b00;direction=south;" parent="1" vertex="1">
          <mxGeometry x="706" y="494" width="80" height="40" as="geometry" />
        </mxCell>
        <mxCell id="ktw5Y0B_OCED_jIGJP1N-44" value="" style="html=1;shadow=0;dashed=0;align=center;verticalAlign=middle;shape=mxgraph.arrows2.jumpInArrow;dy=6;dx=20;arrowHead=29.33;fillColor=#ffe6cc;strokeColor=#d79b00;direction=west;" parent="1" vertex="1">
          <mxGeometry x="666" y="494" width="40" height="80" as="geometry" />
        </mxCell>
        <mxCell id="ktw5Y0B_OCED_jIGJP1N-45" value="" style="html=1;shadow=0;dashed=0;align=center;verticalAlign=middle;shape=mxgraph.arrows2.jumpInArrow;dy=6;dx=20;arrowHead=29.33;fillColor=#ffe6cc;strokeColor=#d79b00;direction=north;" parent="1" vertex="1">
          <mxGeometry x="626" y="404" width="84" height="50" as="geometry" />
        </mxCell>
        <mxCell id="ktw5Y0B_OCED_jIGJP1N-46" value="线上与线下并行的渠道模式" style="rounded=1;whiteSpace=wrap;html=1;fillColor=#dae8fc;strokeColor=#6c8ebf;" parent="1" vertex="1">
          <mxGeometry x="586" y="364" width="80" height="40" as="geometry" />
        </mxCell>
        <mxCell id="ktw5Y0B_OCED_jIGJP1N-47" value="线上与线下渠道成员" style="rounded=1;whiteSpace=wrap;html=1;fillColor=#dae8fc;strokeColor=#6c8ebf;" parent="1" vertex="1">
          <mxGeometry x="746" y="364" width="80" height="40" as="geometry" />
        </mxCell>
        <mxCell id="ktw5Y0B_OCED_jIGJP1N-48" value="小米手机分销渠道结构" style="rounded=1;whiteSpace=wrap;html=1;fillColor=#dae8fc;strokeColor=#6c8ebf;" parent="1" vertex="1">
          <mxGeometry x="586" y="534" width="80" height="40" as="geometry" />
        </mxCell>
        <mxCell id="ktw5Y0B_OCED_jIGJP1N-49" value="对中间商和消费者的渠道控制" style="rounded=1;whiteSpace=wrap;html=1;fillColor=#dae8fc;strokeColor=#6c8ebf;" parent="1" vertex="1">
          <mxGeometry x="746" y="534" width="80" height="40" as="geometry" />
        </mxCell>
        <mxCell id="ktw5Y0B_OCED_jIGJP1N-58" value="" style="strokeWidth=2;html=1;shape=mxgraph.flowchart.annotation_2;align=left;labelPosition=right;pointerEvents=1;direction=north;fillColor=#f8cecc;strokeColor=#b85450;" parent="1" vertex="1">
          <mxGeometry x="551" y="314" width="100" height="50" as="geometry" />
        </mxCell>
        <mxCell id="ktw5Y0B_OCED_jIGJP1N-60" value="线上渠道模式" style="rounded=1;whiteSpace=wrap;html=1;fillColor=#f8cecc;strokeColor=#b85450;" parent="1" vertex="1">
          <mxGeometry x="504" y="284" width="60" height="30" as="geometry" />
        </mxCell>
        <mxCell id="ktw5Y0B_OCED_jIGJP1N-61" value="线下渠道模式" style="rounded=1;whiteSpace=wrap;html=1;fillColor=#f8cecc;strokeColor=#b85450;" parent="1" vertex="1">
          <mxGeometry x="640" y="286" width="60" height="30" as="geometry" />
        </mxCell>
        <mxCell id="ktw5Y0B_OCED_jIGJP1N-62" value="" style="strokeWidth=2;html=1;shape=mxgraph.flowchart.annotation_2;align=left;labelPosition=right;pointerEvents=1;direction=north;fillColor=#f8cecc;strokeColor=#b85450;" parent="1" vertex="1">
          <mxGeometry x="746" y="314" width="100" height="50" as="geometry" />
        </mxCell>
        <mxCell id="ktw5Y0B_OCED_jIGJP1N-63" value="线上成员" style="rounded=1;whiteSpace=wrap;html=1;fillColor=#f8cecc;strokeColor=#b85450;" parent="1" vertex="1">
          <mxGeometry x="716" y="284" width="60" height="30" as="geometry" />
        </mxCell>
        <mxCell id="ktw5Y0B_OCED_jIGJP1N-66" value="线下成员" style="rounded=1;whiteSpace=wrap;html=1;fillColor=#f8cecc;strokeColor=#b85450;" parent="1" vertex="1">
          <mxGeometry x="816" y="284" width="60" height="30" as="geometry" />
        </mxCell>
        <mxCell id="ktw5Y0B_OCED_jIGJP1N-69" value="" style="line;strokeWidth=2;direction=south;html=1;fillColor=#e1d5e7;strokeColor=#9673a6;" parent="1" vertex="1">
          <mxGeometry x="741" y="264" width="10" height="20" as="geometry" />
        </mxCell>
        <mxCell id="ktw5Y0B_OCED_jIGJP1N-70" value="电商平台" style="rounded=1;whiteSpace=wrap;html=1;fillColor=#e1d5e7;strokeColor=#9673a6;" parent="1" vertex="1">
          <mxGeometry x="716" y="234" width="60" height="30" as="geometry" />
        </mxCell>
        <mxCell id="ktw5Y0B_OCED_jIGJP1N-71" value="" style="strokeWidth=2;html=1;shape=mxgraph.flowchart.annotation_2;align=left;labelPosition=right;pointerEvents=1;fillColor=#e1d5e7;strokeColor=#9673a6;" parent="1" vertex="1">
          <mxGeometry x="876" y="208.38" width="60" height="181.25" as="geometry" />
        </mxCell>
        <mxCell id="ktw5Y0B_OCED_jIGJP1N-72" value="" style="line;strokeWidth=2;html=1;fillColor=#e1d5e7;strokeColor=#9673a6;" parent="1" vertex="1">
          <mxGeometry x="906" y="254" width="30" height="10" as="geometry" />
        </mxCell>
        <mxCell id="ktw5Y0B_OCED_jIGJP1N-73" value="" style="line;strokeWidth=2;html=1;fillColor=#e1d5e7;strokeColor=#9673a6;" parent="1" vertex="1">
          <mxGeometry x="906" y="294.01" width="30" height="10" as="geometry" />
        </mxCell>
        <mxCell id="ktw5Y0B_OCED_jIGJP1N-74" value="" style="line;strokeWidth=2;html=1;fillColor=#e1d5e7;strokeColor=#9673a6;" parent="1" vertex="1">
          <mxGeometry x="906" y="344" width="30" height="10" as="geometry" />
        </mxCell>
        <mxCell id="ktw5Y0B_OCED_jIGJP1N-75" value="批发商" style="rounded=1;whiteSpace=wrap;html=1;fillColor=#e1d5e7;strokeColor=#9673a6;" parent="1" vertex="1">
          <mxGeometry x="936" y="194" width="60" height="30" as="geometry" />
        </mxCell>
        <mxCell id="ktw5Y0B_OCED_jIGJP1N-76" value="零售商" style="rounded=1;whiteSpace=wrap;html=1;fillColor=#e1d5e7;strokeColor=#9673a6;" parent="1" vertex="1">
          <mxGeometry x="936" y="244" width="60" height="30" as="geometry" />
        </mxCell>
        <mxCell id="ktw5Y0B_OCED_jIGJP1N-77" value="小米之家" style="rounded=1;whiteSpace=wrap;html=1;fillColor=#e1d5e7;strokeColor=#9673a6;" parent="1" vertex="1">
          <mxGeometry x="936" y="289.63" width="60" height="30" as="geometry" />
        </mxCell>
        <mxCell id="ktw5Y0B_OCED_jIGJP1N-78" value="商超卖场" style="rounded=1;whiteSpace=wrap;html=1;fillColor=#e1d5e7;strokeColor=#9673a6;" parent="1" vertex="1">
          <mxGeometry x="936" y="334" width="60" height="30" as="geometry" />
        </mxCell>
        <mxCell id="ktw5Y0B_OCED_jIGJP1N-79" value="运营商" style="rounded=1;whiteSpace=wrap;html=1;fillColor=#e1d5e7;strokeColor=#9673a6;" parent="1" vertex="1">
          <mxGeometry x="936" y="384" width="60" height="30" as="geometry" />
        </mxCell>
        <mxCell id="ktw5Y0B_OCED_jIGJP1N-80" value="" style="strokeWidth=2;html=1;shape=mxgraph.flowchart.annotation_2;align=left;labelPosition=right;pointerEvents=1;direction=south;fillColor=#f8cecc;strokeColor=#b85450;" parent="1" vertex="1">
          <mxGeometry x="457" y="574" width="282" height="50" as="geometry" />
        </mxCell>
        <mxCell id="ktw5Y0B_OCED_jIGJP1N-81" value="" style="strokeWidth=2;html=1;shape=mxgraph.flowchart.annotation_2;align=left;labelPosition=right;pointerEvents=1;direction=south;fillColor=#f8cecc;strokeColor=#b85450;" parent="1" vertex="1">
          <mxGeometry x="770" y="574" width="100" height="50" as="geometry" />
        </mxCell>
        <mxCell id="ktw5Y0B_OCED_jIGJP1N-82" value="中间商" style="rounded=1;whiteSpace=wrap;html=1;fillColor=#f8cecc;strokeColor=#b85450;" parent="1" vertex="1">
          <mxGeometry x="753" y="622" width="60" height="30" as="geometry" />
        </mxCell>
        <mxCell id="ktw5Y0B_OCED_jIGJP1N-83" value="消费者" style="rounded=1;whiteSpace=wrap;html=1;fillColor=#f8cecc;strokeColor=#b85450;" parent="1" vertex="1">
          <mxGeometry x="854" y="622" width="60" height="30" as="geometry" />
        </mxCell>
        <mxCell id="ktw5Y0B_OCED_jIGJP1N-84" value="" style="strokeWidth=2;html=1;shape=mxgraph.flowchart.annotation_2;align=left;labelPosition=right;pointerEvents=1;direction=south;fillColor=#e1d5e7;strokeColor=#9673a6;" parent="1" vertex="1">
          <mxGeometry x="743" y="652" width="70" height="40" as="geometry" />
        </mxCell>
        <mxCell id="ktw5Y0B_OCED_jIGJP1N-85" value="分销商" style="rounded=1;whiteSpace=wrap;html=1;fillColor=#e1d5e7;strokeColor=#9673a6;" parent="1" vertex="1">
          <mxGeometry x="710" y="692" width="60" height="30" as="geometry" />
        </mxCell>
        <mxCell id="ktw5Y0B_OCED_jIGJP1N-86" value="代理商" style="rounded=1;whiteSpace=wrap;html=1;fillColor=#e1d5e7;strokeColor=#9673a6;" parent="1" vertex="1">
          <mxGeometry x="781" y="692" width="60" height="30" as="geometry" />
        </mxCell>
        <mxCell id="ktw5Y0B_OCED_jIGJP1N-87" value="" style="strokeWidth=2;html=1;shape=mxgraph.flowchart.annotation_2;align=left;labelPosition=right;pointerEvents=1;direction=south;fillColor=#e1d5e7;strokeColor=#9673a6;" parent="1" vertex="1">
          <mxGeometry x="870" y="652" width="70" height="40" as="geometry" />
        </mxCell>
        <mxCell id="ktw5Y0B_OCED_jIGJP1N-88" value="产品升级" style="rounded=1;whiteSpace=wrap;html=1;fillColor=#e1d5e7;strokeColor=#9673a6;" parent="1" vertex="1">
          <mxGeometry x="846" y="692" width="60" height="30" as="geometry" />
        </mxCell>
        <mxCell id="ktw5Y0B_OCED_jIGJP1N-89" value="品牌认知" style="rounded=1;whiteSpace=wrap;html=1;fillColor=#e1d5e7;strokeColor=#9673a6;" parent="1" vertex="1">
          <mxGeometry x="923" y="692" width="60" height="30" as="geometry" />
        </mxCell>
        <mxCell id="ktw5Y0B_OCED_jIGJP1N-93" value="" style="line;strokeWidth=2;direction=south;html=1;fillColor=#f8cecc;strokeColor=#b85450;" parent="1" vertex="1">
          <mxGeometry x="572" y="599" width="10" height="25" as="geometry" />
        </mxCell>
        <mxCell id="ktw5Y0B_OCED_jIGJP1N-95" value="" style="line;strokeWidth=2;direction=south;html=1;fillColor=#f8cecc;strokeColor=#b85450;" parent="1" vertex="1">
          <mxGeometry x="641" y="599" width="10" height="25" as="geometry" />
        </mxCell>
        <mxCell id="ktw5Y0B_OCED_jIGJP1N-96" value="小米官网" style="rounded=1;whiteSpace=wrap;html=1;fillColor=#f8cecc;strokeColor=#b85450;" parent="1" vertex="1">
          <mxGeometry x="420" y="622" width="60" height="30" as="geometry" />
        </mxCell>
        <mxCell id="ktw5Y0B_OCED_jIGJP1N-97" value="社会分销" style="rounded=1;whiteSpace=wrap;html=1;fillColor=#f8cecc;strokeColor=#b85450;" parent="1" vertex="1">
          <mxGeometry x="553.5" y="622" width="60" height="30" as="geometry" />
        </mxCell>
        <mxCell id="ktw5Y0B_OCED_jIGJP1N-98" value="小米之家" style="rounded=1;whiteSpace=wrap;html=1;fillColor=#f8cecc;strokeColor=#b85450;" parent="1" vertex="1">
          <mxGeometry x="621" y="622" width="60" height="30" as="geometry" />
        </mxCell>
        <mxCell id="ktw5Y0B_OCED_jIGJP1N-99" value="运营商" style="rounded=1;whiteSpace=wrap;html=1;fillColor=#f8cecc;strokeColor=#b85450;" parent="1" vertex="1">
          <mxGeometry x="686" y="622" width="60" height="30" as="geometry" />
        </mxCell>
        <mxCell id="EEuF5Tf1vRJEbU7uyYD1-1" value="" style="line;strokeWidth=2;direction=south;html=1;fillColor=#e1d5e7;strokeColor=#9673a6;" vertex="1" parent="1">
          <mxGeometry x="516" y="264" width="10" height="20" as="geometry" />
        </mxCell>
        <mxCell id="EEuF5Tf1vRJEbU7uyYD1-6" value="与运营商、分销商、零售商等进行合作、小米之家" style="rounded=1;whiteSpace=wrap;html=1;fillColor=#e1d5e7;strokeColor=#9673a6;" vertex="1" parent="1">
          <mxGeometry x="592" y="202" width="118" height="64" as="geometry" />
        </mxCell>
        <mxCell id="EEuF5Tf1vRJEbU7uyYD1-9" value="" style="line;strokeWidth=2;direction=south;html=1;fillColor=#e1d5e7;strokeColor=#9673a6;" vertex="1" parent="1">
          <mxGeometry x="665" y="266" width="10" height="20" as="geometry" />
        </mxCell>
        <mxCell id="EEuF5Tf1vRJEbU7uyYD1-16" value="与本土和跨境电商合作、小米官网" style="rounded=1;whiteSpace=wrap;html=1;fillColor=#e1d5e7;strokeColor=#9673a6;" vertex="1" parent="1">
          <mxGeometry x="457" y="202" width="118" height="64" as="geometry" />
        </mxCell>
        <mxCell id="EEuF5Tf1vRJEbU7uyYD1-23" value="" style="line;strokeWidth=2;direction=south;html=1;fillColor=#f8cecc;strokeColor=#b85450;" vertex="1" parent="1">
          <mxGeometry x="513" y="599" width="10" height="25" as="geometry" />
        </mxCell>
        <mxCell id="EEuF5Tf1vRJEbU7uyYD1-25" value="电商平台" style="rounded=1;whiteSpace=wrap;html=1;fillColor=#f8cecc;strokeColor=#b85450;" vertex="1" parent="1">
          <mxGeometry x="486" y="622" width="60" height="30" as="geometry" />
        </mxCell>
      </root>
    </mxGraphModel>
  </diagram>
</mxfile>
